<svg xmlns="http://www.w3.org/2000/svg" width="120" height="120" viewBox="0 0 120 120" role="img" aria-label="案内役のキャラクターが両手を上げて喜んでいる">
  <circle cx="60" cy="64" r="52" fill="#eefaf1"/>
  <line x1="60" y1="30" x2="60" y2="20" stroke="#2b9e64" stroke-width="4" stroke-linecap="round"/>
  <circle cx="60" cy="16" r="6" fill="#ffc94d"/>
  <rect x="26" y="30" width="68" height="56" rx="20" fill="#2b9e64"/>
  <path d="M41 58 q6 -9 12 0" stroke="#ffffff" stroke-width="4" fill="none" stroke-linecap="round"/>
  <path d="M67 58 q6 -9 12 0" stroke="#ffffff" stroke-width="4" fill="none" stroke-linecap="round"/>
  <path d="M48 68 q12 13 24 0" stroke="#ffffff" stroke-width="4" fill="none" stroke-linecap="round"/>
  <rect x="10" y="34" width="12" height="28" rx="6" fill="#57bd8a" transform="rotate(-38 16 48)"/>
  <rect x="98" y="34" width="12" height="28" rx="6" fill="#57bd8a" transform="rotate(38 104 48)"/>
  <rect x="38" y="90" width="14" height="16" rx="7" fill="#57bd8a"/>
  <rect x="68" y="90" width="14" height="16" rx="7" fill="#57bd8a"/>
  <g fill="#ffc94d">
    <circle cx="18" cy="94" r="4"/><circle cx="103" cy="92" r="4"/><circle cx="30" cy="20" r="3.5"/>
  </g>
  <g fill="#5a8bf2"><circle cx="94" cy="18" r="3.5"/><circle cx="12" cy="60" r="3"/></g>
</svg>
